<?xml version="1.0" standalone="no"?>
<!DOCTYPE svg PUBLIC "-//W3C//DTD SVG 20010904//EN"
 "http://www.w3.org/TR/2001/REC-SVG-20010904/DTD/svg10.dtd">
<svg version="1.0" xmlns="http://www.w3.org/2000/svg"
 width="2040.000000pt" height="2040.000000pt" viewBox="0 0 2040.000000 2040.000000"
 preserveAspectRatio="xMidYMid meet">
<metadata>
Created by potrace 1.16, written by Peter Selinger 2001-2019
</metadata>
<g transform="translate(0.000000,2040.000000) scale(0.100000,-0.100000)"
fill="#000000" stroke="none">
<path d="M5415 18910 c-22 -5 -62 -19 -90 -31 -60 -27 -99 -27 -230 0 -130 27
-180 26 -230 -2 -62 -35 -67 -54 -55 -209 5 -73 10 -214 10 -312 0 -121 5
-207 16 -264 13 -68 13 -94 4 -130 -26 -104 -85 -133 -122 -61 -35 69 -41 144
-43 543 -2 363 -4 390 -21 403 -25 18 -79 16 -95 -4 -11 -13 -13 -75 -10 -335
l3 -319 -33 -92 c-41 -117 -50 -129 -104 -157 -74 -38 -90 -62 -89 -133 1 -34
3 -222 5 -417 4 -338 3 -357 -15 -387 -11 -18 -34 -38 -50 -44 -79 -31 -94
-41 -114 -83 -28 -55 -47 -72 -102 -86 -69 -19 -131 -54 -173 -99 -48 -52
-101 -79 -171 -87 -63 -8 -68 -12 -85 -71 -14 -50 -40 -67 -116 -78 -74 -11
-82 -18 -95 -82 -6 -32 -19 -69 -29 -83 -36 -50 -45 -78 -74 -205 -40 -181
-43 -222 -22 -262 17 -31 67 -63 99 -63 29 0 88 29 133 66 52 43 55 68 15 133
-50 82 -79 244 -48 270 7 6 42 18 77 25 35 8 87 20 116 27 45 11 55 10 78 -5
14 -9 31 -29 37 -44 16 -40 1 -795 -16 -837 -8 -19 -33 -44 -64 -64 -94 -60
-110 -163 -35 -237 46 -47 88 -46 173 4 53 30 70 46 89 85 l23 47 -9 568 c-9
531 -8 573 9 657 21 101 40 129 101 146 53 14 111 52 139 89 36 49 189 125
276 138 41 6 76 12 78 15 15 15 25 140 23 297 -3 201 0 214 52 251 35 25 68
89 69 132 0 50 -16 65 -79 78 -149 29 -140 152 11 153 57 0 75 -14 89 -71 8
-30 27 -59 60 -93 l49 -50 -1 -238 c-1 -130 -4 -385 -8 -567 -7 -323 -7 -332
16 -420 12 -49 28 -152 35 -227 10 -119 9 -163 -6 -326 -10 -104 -15 -203 -12
-219 11 -50 50 -78 105 -77 53 2 125 34 141 63 14 28 12 84 -4 128 -29 76 -65
292 -76 458 -7 94 -13 312 -14 485 l-1 315 27 50 c40 73 52 85 85 85 39 0 68
-33 94 -105 20 -56 20 -76 17 -395 -4 -281 -7 -347 -23 -412 -32 -135 2 -167
179 -171 92 -2 107 0 133 19 40 30 43 93 9 172 -14 31 -42 100 -62 152 l-36
95 7 225 c7 216 6 227 -15 280 -17 42 -19 59 -11 77 15 32 93 64 171 70 106 8
98 40 106 -468 8 -462 8 -461 0 -874 -3 -148 -6 -280 -6 -293 0 -15 -21 -46
-56 -82 -68 -72 -83 -115 -57 -168 24 -50 74 -73 156 -74 35 0 74 5 86 12 57
30 76 123 47 220 -11 38 -12 192 -5 945 6 550 14 937 20 995 15 123 28 1536
15 1568 -19 45 -66 63 -193 72 -139 11 -223 11 -278 0z"/>
<path d="M6115 18910 c-17 -5 -44 -23 -60 -39 l-28 -31 1 -707 c1 -390 6 -733
11 -763 6 -30 22 -84 37 -120 l27 -65 5 -554 c3 -494 2 -562 -13 -623 -43
-178 -3 -235 156 -226 59 3 73 8 97 31 38 38 37 110 -3 187 -51 100 -55 130
-60 495 -3 187 -7 372 -10 411 -7 87 2 110 65 182 28 32 67 86 88 122 70 121
126 119 165 -4 25 -81 25 -64 18 -984 -3 -489 -2 -524 14 -542 22 -24 81 -27
111 -5 49 34 52 58 44 360 -5 154 -12 361 -15 460 -7 173 -7 181 13 206 13 16
39 31 64 37 26 7 49 20 57 34 24 38 30 265 31 1190 1 665 -2 872 -11 890 -21
39 -39 51 -88 56 -48 4 -64 1 -191 -43 -41 -14 -86 -25 -101 -25 -15 0 -61 16
-103 36 -70 34 -85 37 -184 40 -59 2 -121 -1 -137 -6z"/>
<path d="M7164 18909 c-16 -4 -41 -20 -53 -33 l-24 -25 2 -1002 2 -1001 -25
-52 c-18 -36 -38 -59 -70 -79 -32 -20 -53 -44 -76 -90 -31 -59 -33 -70 -41
-212 -4 -82 -8 -270 -8 -416 -1 -247 1 -270 21 -330 21 -63 21 -72 22 -894 1
-827 1 -830 22 -876 18 -37 28 -48 53 -54 35 -7 73 11 91 44 27 52 33 235 27
935 -3 450 -1 719 5 737 10 29 47 59 72 59 9 0 30 -13 48 -29 l33 -29 7 -674
c12 -1206 10 -1139 33 -1176 11 -18 37 -44 58 -58 23 -15 45 -41 56 -67 24
-54 48 -79 109 -112 34 -18 57 -41 77 -75 17 -29 44 -57 68 -71 44 -26 101
-80 129 -122 10 -14 41 -38 69 -53 34 -19 59 -42 76 -71 26 -45 76 -93 97 -93
20 0 66 -55 76 -91 16 -60 32 -242 25 -294 -7 -63 -42 -126 -79 -144 -32 -15
-350 -17 -390 -1 -31 11 -73 63 -81 100 -4 18 0 58 11 98 20 80 14 128 -23
172 -35 42 -70 58 -148 69 -49 7 -85 21 -133 49 -37 22 -90 47 -119 57 -48 15
-54 21 -80 73 -24 49 -37 61 -86 88 -45 24 -65 42 -87 80 -22 39 -40 55 -86
79 -48 25 -64 40 -89 84 -25 45 -40 59 -85 80 -34 17 -62 39 -77 61 -46 72
-55 81 -113 110 -45 23 -64 40 -80 69 -10 22 -31 48 -44 59 -58 45 -66 45
-1609 44 -1619 -1 -1549 2 -1583 -63 -22 -44 -5 -82 49 -106 40 -17 118 -18
1517 -23 l1475 -5 50 -23 c28 -13 73 -45 100 -71 28 -27 72 -62 99 -79 37 -22
56 -44 80 -88 29 -55 35 -61 96 -85 58 -23 67 -30 80 -66 21 -56 46 -81 94
-95 54 -15 66 -27 85 -85 15 -46 18 -49 76 -66 95 -29 91 -24 115 -124 9 -37
15 -43 58 -59 69 -25 79 -38 98 -120 19 -86 10 -123 -32 -143 -55 -25 -84 -2
-109 85 -34 123 -43 138 -93 164 -26 14 -90 67 -142 120 -60 60 -117 107 -155
127 -33 17 -67 44 -77 60 -23 39 -61 73 -116 103 -25 14 -52 35 -58 47 -19 40
-44 60 -87 72 -60 17 -3111 11 -3148 -6 -58 -26 -77 -74 -41 -106 43 -39 59
-39 1522 -39 1396 1 1646 -4 1674 -27 8 -7 20 -29 27 -49 17 -54 35 -70 94
-82 64 -13 73 -23 89 -92 11 -51 13 -53 56 -66 25 -7 56 -16 70 -20 24 -7 32
-19 64 -94 11 -27 23 -39 43 -43 74 -16 97 -30 111 -67 13 -33 12 -41 -4 -75
-17 -34 -23 -38 -62 -41 -58 -4 -86 16 -120 85 -23 49 -32 58 -67 68 -70 20
-84 32 -100 89 -19 63 -26 71 -80 81 -65 11 -103 35 -127 76 -17 30 -31 42
-61 50 -50 13 -2880 22 -2982 9 -40 -5 -84 -14 -98 -21 -34 -15 -51 -59 -44
-111 11 -85 61 -115 204 -119 43 -1 688 -2 1433 -1 1271 1 1360 0 1441 -17
128 -27 176 -63 186 -141 7 -54 -3 -87 -30 -97 -12 -4 -202 -8 -422 -8 l-400
0 -44 -32 c-24 -18 -60 -38 -80 -45 -27 -9 -298 -13 -1115 -15 -961 -2 -1084
-4 -1127 -18 -54 -18 -79 -46 -79 -86 0 -48 33 -76 113 -94 66 -15 438 -17
4622 -21 5622 -6 6092 -7 6128 -22 15 -6 27 -18 27 -25 0 -44 183 -42 -4150
-45 -3915 -2 -4096 -3 -4130 -21 -21 -11 -47 -37 -65 -68 -45 -76 -73 -91
-190 -103 -105 -10 -160 -17 -210 -27 -20 -4 -52 -28 -95 -74 -59 -62 -70 -70
-119 -79 -33 -6 -386 -10 -917 -10 -888 0 -945 -2 -979 -40 -48 -53 -15 -166
60 -204 38 -20 62 -21 600 -28 308 -4 635 -4 726 -1 248 8 329 -17 329 -99 0
-46 -18 -69 -97 -121 -38 -24 -86 -66 -109 -93 -31 -37 -69 -64 -158 -112
l-118 -64 -556 3 c-518 3 -561 1 -615 -16 -69 -22 -97 -52 -97 -106 0 -47 23
-73 77 -90 26 -8 203 -14 553 -19 654 -10 643 -7 697 -154 12 -33 15 -91 14
-301 -2 -297 -5 -309 -81 -359 -25 -17 -49 -37 -54 -45 -5 -9 -26 -33 -45 -54
-64 -67 -143 -60 -175 17 -30 72 -24 71 -461 71 -428 -1 -455 -4 -485 -57 -13
-25 -13 -31 0 -55 41 -72 135 -88 485 -79 143 3 289 9 325 12 48 4 70 2 84 -9
27 -20 14 -57 -29 -85 -20 -13 -42 -39 -51 -60 -40 -94 -49 -107 -104 -137
-30 -17 -65 -46 -78 -65 -46 -70 -58 -81 -92 -91 -19 -5 -135 -14 -257 -18
-185 -7 -227 -12 -260 -27 -32 -16 -38 -24 -41 -55 -6 -72 37 -85 338 -100
219 -11 226 -11 277 10 76 30 127 65 165 112 18 23 59 59 90 80 31 21 71 59
89 84 18 25 56 61 85 80 29 20 70 57 91 84 21 27 62 64 90 83 30 18 66 53 82
78 16 25 48 56 71 70 126 76 121 53 131 610 5 283 12 464 19 480 6 15 33 39
63 56 36 20 63 46 86 82 25 38 49 60 90 82 43 23 64 43 91 86 25 41 48 63 81
80 43 21 68 45 112 109 30 42 61 56 164 71 54 8 130 23 169 34 71 19 74 22
184 134 61 63 127 122 145 130 53 26 128 21 164 -10 18 -15 31 -35 31 -49 0
-31 -47 -69 -110 -90 -47 -16 -90 -54 -90 -80 0 -25 -40 -62 -79 -74 -52 -15
-76 -41 -90 -96 -10 -41 -35 -69 -106 -119 -15 -10 -42 -42 -60 -71 -33 -51
-67 -86 -341 -346 -72 -68 -148 -144 -170 -169 -21 -25 -51 -58 -66 -74 -15
-17 -39 -55 -55 -85 l-28 -56 0 -235 c0 -129 2 -436 4 -681 l4 -446 -48 -89
c-59 -111 -56 -107 -118 -142 -29 -16 -71 -52 -95 -80 -23 -28 -66 -67 -96
-86 -58 -39 -137 -134 -170 -205 -19 -41 -21 -66 -23 -218 -2 -201 -9 -223
-84 -279 -27 -20 -63 -55 -79 -79 -21 -30 -44 -48 -82 -65 -63 -26 -83 -42
-115 -93 -18 -29 -41 -46 -89 -67 -46 -21 -70 -38 -82 -61 -32 -57 -51 -76
-106 -102 -30 -15 -60 -35 -65 -46 -31 -57 6 -127 72 -138 45 -7 99 25 137 81
15 23 48 49 85 69 36 19 94 65 143 114 96 96 131 117 176 109 33 -6 77 -46 91
-81 4 -11 6 -206 5 -434 -1 -339 -4 -421 -16 -450 -8 -19 -41 -62 -73 -96 -65
-67 -81 -95 -105 -176 -17 -60 -34 -80 -86 -103 -50 -22 -65 -36 -97 -91 -23
-41 -39 -55 -91 -80 -40 -19 -81 -50 -111 -83 l-48 -52 -71 0 c-71 0 -270 -48
-300 -73 -8 -6 -23 -29 -35 -51 -29 -55 -32 -236 -4 -307 20 -52 31 -59 167
-107 112 -39 141 -44 202 -31 50 11 185 77 222 108 58 50 80 170 51 277 -20
75 -19 79 48 182 28 43 60 77 98 102 31 22 75 61 98 88 31 38 57 56 108 77
162 66 173 73 187 107 26 63 36 379 38 1158 1 426 5 786 8 800 4 14 31 43 63
68 34 26 67 63 84 93 23 42 38 55 89 79 65 31 83 47 108 97 9 18 40 48 71 68
63 40 90 78 105 149 20 93 53 116 120 81 59 -31 63 -66 19 -179 -58 -149 -53
-142 -108 -162 -58 -20 -82 -43 -110 -99 -10 -21 -36 -50 -57 -64 -80 -54 -74
37 -74 -1187 0 -1067 0 -1093 -20 -1170 -18 -67 -22 -122 -27 -369 -3 -160 -3
-307 1 -328 4 -23 20 -51 42 -72 59 -59 140 -45 169 30 4 11 9 634 11 1385 2
751 6 1397 8 1436 2 40 12 98 22 129 17 52 23 60 71 87 46 26 95 71 120 110 4
7 34 32 65 56 60 46 76 66 119 147 14 28 34 66 44 84 17 32 19 71 19 530 1
273 -1 533 -3 577 -4 73 -1 91 29 175 18 52 40 102 49 112 8 10 40 31 71 48
34 18 63 42 74 62 28 49 56 76 106 103 29 16 58 43 77 72 23 35 47 56 89 78
36 18 67 43 81 64 12 19 28 43 35 53 18 24 68 32 93 13 19 -14 20 -25 17 -197
-3 -256 -8 -265 -262 -486 -58 -51 -124 -106 -147 -122 -45 -33 -73 -78 -93
-151 -10 -36 -13 -494 -11 -2192 0 -1277 5 -2157 10 -2171 13 -32 58 -67 88
-67 24 0 73 43 73 64 1 6 2 954 4 2106 3 2148 4 2167 41 2225 7 11 33 30 58
43 43 21 77 55 120 117 11 14 31 31 45 38 50 21 84 50 113 96 16 25 50 61 77
81 29 22 52 49 59 70 7 21 12 99 12 196 1 95 6 175 13 195 15 44 154 202 254
289 16 14 54 52 84 85 31 33 136 137 233 230 200 191 189 186 297 140 59 -25
72 -27 153 -22 107 6 134 21 160 93 18 53 18 175 -1 246 -11 44 0 71 41 102
31 23 83 24 682 15 269 -5 285 -9 285 -79 0 -35 -6 -46 -50 -87 -63 -60 -64
-81 -6 -167 91 -132 108 -199 102 -405 -3 -124 -8 -166 -22 -192 -23 -46 -180
-216 -225 -245 -32 -20 -136 -144 -181 -216 -34 -53 -38 -142 -38 -891 l0
-738 -25 -82 c-20 -61 -27 -106 -28 -177 -2 -84 2 -106 30 -185 l31 -90 -1
-475 c-2 -460 -3 -476 -23 -515 -42 -80 -117 -197 -130 -202 -22 -8 -45 17
-77 87 -30 64 -30 67 -38 305 -5 132 -8 350 -8 485 0 135 -4 263 -10 285 -25
101 -118 76 -156 -43 -17 -53 -18 -93 -14 -537 7 -814 4 -1308 -8 -1590 -26
-588 -26 -547 -1 -585 13 -19 45 -48 72 -65 l49 -30 201 0 201 0 89 37 c86 36
150 83 161 119 3 9 0 29 -7 45 -10 22 -14 206 -19 789 -6 814 -5 791 -58 907
-12 27 -26 59 -31 72 -5 13 -10 233 -10 488 l-2 463 24 50 c21 45 23 64 22
180 0 109 -4 140 -23 193 l-23 63 2 697 c1 383 1 713 -1 733 -3 31 4 44 39 84
23 26 51 72 62 104 26 69 43 89 96 111 40 18 64 42 107 110 13 19 42 46 65 58
77 43 76 41 82 352 l5 275 47 98 c54 112 71 167 61 193 -5 11 -21 38 -36 60
-21 32 -28 51 -25 80 3 34 8 42 43 59 38 19 60 20 367 20 317 0 327 -1 355
-21 26 -20 28 -25 26 -85 -7 -181 -6 -218 6 -258 7 -24 25 -57 41 -73 25 -24
36 -28 87 -28 121 0 190 46 212 140 15 63 13 112 -5 178 -19 71 -10 102 39
125 76 36 129 9 146 -76 8 -36 9 -220 3 -607 l-7 -555 -29 -62 c-33 -72 -31
-83 31 -170 50 -71 70 -86 116 -81 25 2 45 19 99 82 37 43 68 87 68 97 0 10
-14 41 -31 68 -16 28 -34 64 -39 81 -5 16 -10 277 -11 578 -2 593 -1 615 50
649 18 12 53 18 111 21 146 6 184 -33 163 -169 -13 -82 -1 -198 26 -244 27
-46 55 -56 146 -52 44 2 92 10 107 17 63 30 94 172 64 292 -21 86 -12 112 50
139 44 20 62 21 382 17 294 -3 341 -5 368 -20 51 -28 57 -68 23 -163 l-22 -60
26 -86 c32 -102 53 -131 118 -164 30 -16 65 -46 90 -78 22 -28 64 -66 92 -83
29 -17 58 -41 65 -55 10 -19 12 -121 9 -469 -4 -502 -7 -530 -70 -569 -44 -27
-80 -67 -110 -121 -18 -32 -40 -54 -78 -75 -36 -21 -66 -48 -89 -82 -22 -33
-52 -61 -83 -78 -32 -18 -60 -45 -87 -84 -28 -42 -55 -68 -93 -89 -38 -22 -62
-44 -81 -77 -17 -29 -47 -59 -79 -79 -60 -38 -82 -61 -105 -107 -10 -18 -26
-37 -37 -43 -100 -55 -126 -89 -140 -192 -4 -34 -15 -60 -32 -78 -20 -21 -25
-38 -24 -69 0 -23 0 -131 0 -239 0 -170 2 -198 15 -198 8 0 18 5 22 11 4 6 7
91 8 188 1 175 1 176 31 236 28 55 34 62 83 79 60 21 95 54 133 123 18 34 38
54 75 73 34 19 60 43 87 83 28 42 53 65 88 82 35 18 59 41 86 83 27 40 53 65
88 84 52 28 79 55 106 105 9 16 41 43 72 61 42 24 63 45 88 86 21 34 44 59 60
65 40 14 98 70 124 120 13 25 40 59 60 75 67 52 69 63 62 410 -7 327 -5 349
41 389 23 21 73 25 105 8 12 -6 35 -35 50 -64 21 -40 40 -60 82 -85 30 -18 59
-41 64 -50 5 -9 18 -60 30 -112 l22 -95 -3 -1380 -3 -1380 -23 -47 c-16 -33
-39 -57 -72 -79 -28 -18 -56 -46 -66 -68 -29 -55 -54 -80 -95 -91 -46 -13 -84
-42 -113 -89 -15 -23 -44 -48 -81 -67 -51 -27 -62 -38 -92 -95 -31 -61 -57
-91 -117 -134 l-28 -20 4 -615 c1 -338 1 -668 0 -733 l-3 -119 40 -38 c128
-122 404 -118 452 7 13 36 13 1193 0 1262 -14 69 -14 414 0 464 12 46 64 107
91 107 33 0 77 -29 95 -63 20 -37 24 -183 9 -358 -10 -121 -6 -145 28 -182
l24 -26 93 31 c52 18 106 36 122 41 55 19 48 101 -17 180 l-42 52 1 1485 c1
871 6 1578 12 1710 12 246 5 371 -24 425 -83 154 -104 183 -158 216 -32 19
-74 58 -99 90 -25 32 -61 65 -80 74 -36 17 -106 87 -106 105 0 5 -26 28 -57
52 -67 49 -235 213 -252 245 -15 30 -14 90 5 162 8 34 14 76 12 93 -3 28 -9
35 -46 48 -57 21 -80 45 -66 68 25 40 94 13 108 -43 5 -18 15 -24 51 -29 50
-8 64 -23 85 -91 12 -36 122 -153 310 -328 14 -13 39 -39 56 -58 18 -19 80
-79 140 -134 59 -55 144 -137 188 -181 45 -45 95 -91 111 -102 19 -12 40 -43
55 -79 l25 -58 5 -1350 c6 -1510 -2 -1375 78 -1447 22 -20 53 -56 70 -81 18
-25 54 -59 81 -75 26 -17 70 -58 95 -91 26 -34 64 -70 84 -80 46 -24 56 -35
123 -145 l54 -90 0 -430 c0 -464 -2 -482 -51 -505 -14 -6 -36 -11 -49 -11 -14
0 -42 -7 -64 -16 -43 -17 -85 -72 -117 -152 -24 -62 -42 -52 -68 39 -41 143
-71 165 -220 163 l-99 -2 7 129 c7 145 1 160 -46 110 -57 -61 -123 -67 -225
-21 -37 17 -76 29 -87 28 -10 -2 -33 -20 -50 -41 -29 -36 -31 -45 -31 -115 0
-43 6 -115 12 -162 8 -57 11 -202 9 -440 -2 -195 1 -367 6 -381 13 -37 48 -53
100 -46 34 5 51 15 82 47 38 41 38 42 30 98 -5 31 -9 202 -9 378 0 372 -5 351
100 378 115 29 109 35 102 -106 -4 -68 -10 -226 -13 -353 -6 -200 -9 -236 -26
-275 -28 -61 -17 -85 60 -132 125 -76 194 -74 283 9 l48 45 48 -40 c71 -59
113 -69 190 -43 82 27 98 27 152 -8 92 -59 114 -63 298 -59 183 3 206 10 233
66 21 41 32 863 24 1853 -5 757 -4 843 11 917 15 75 15 87 1 136 -18 59 -54
111 -85 119 -31 8 -78 -23 -115 -76 -50 -70 -52 -94 -21 -194 25 -79 27 -95
23 -208 -6 -141 -25 -198 -68 -203 -20 -2 -34 7 -59 39 -23 28 -55 51 -96 70
-54 24 -67 35 -93 83 -26 44 -42 60 -91 86 -43 23 -63 40 -70 62 -17 48 -67
88 -111 88 -49 0 -90 -44 -90 -96 0 -42 26 -69 79 -84 49 -13 77 -40 85 -83 9
-42 42 -75 89 -88 43 -11 76 -43 77 -72 0 -24 62 -87 84 -87 43 0 74 -29 90
-83 17 -58 45 -91 94 -108 68 -24 67 -11 70 -635 3 -557 2 -561 -18 -587 -33
-41 -80 -35 -105 14 -13 23 -15 108 -15 519 0 479 -1 492 -21 533 -12 23 -39
60 -60 82 -112 115 -150 153 -180 181 -19 18 -55 55 -80 83 -26 27 -63 58 -82
67 -21 10 -51 39 -73 72 -21 30 -58 69 -83 88 -47 37 -70 67 -90 124 -10 27
-12 318 -11 1340 1 928 -2 1320 -10 1357 -9 41 -20 60 -55 92 -25 23 -49 41
-54 41 -6 0 -26 25 -46 55 -23 36 -53 67 -90 90 -30 19 -66 52 -79 73 -14 20
-53 57 -87 82 -35 25 -77 66 -94 90 -18 26 -56 60 -89 80 -37 22 -70 53 -91
85 -21 31 -53 60 -87 80 -40 23 -59 43 -78 80 -14 26 -44 70 -68 96 -26 30
-40 53 -36 63 3 8 27 25 52 38 45 22 58 23 264 23 l218 0 27 -28 c26 -25 28
-32 24 -90 -8 -112 -4 -191 13 -248 25 -85 39 -93 165 -100 79 -4 117 -10 144
-25 49 -26 201 -166 237 -219 16 -24 52 -59 80 -79 28 -21 65 -59 82 -86 18
-29 51 -63 84 -85 35 -22 68 -56 90 -90 22 -35 48 -62 74 -75 45 -23 82 -69
99 -122 7 -21 33 -61 59 -89 46 -51 46 -52 52 -138 7 -123 29 -159 174 -305
67 -66 133 -130 148 -141 15 -12 81 -73 146 -136 66 -63 190 -181 278 -264
309 -293 470 -459 483 -496 11 -33 15 -292 25 -1364 1 -99 3 -187 4 -197 1 -9
22 -43 47 -76 25 -33 45 -66 45 -74 0 -7 -16 -38 -36 -68 -19 -30 -40 -65 -44
-77 -24 -60 -30 -228 -30 -923 -1 -817 -4 -773 63 -824 33 -26 37 -26 210 -26
206 0 261 13 320 79 l34 38 -3 324 c-3 314 -2 327 21 423 25 101 40 128 87
152 74 38 222 -14 286 -101 17 -24 59 -63 92 -85 64 -43 102 -94 127 -167 13
-36 13 -55 4 -100 -18 -89 -13 -181 12 -241 24 -58 28 -61 152 -118 73 -34 88
-38 170 -38 83 0 97 3 180 38 50 21 97 44 105 52 54 46 70 228 30 321 -25 60
-47 76 -160 119 -62 23 -91 28 -166 29 l-92 0 -53 56 c-41 41 -66 59 -102 69
-48 13 -87 48 -87 79 0 32 -41 77 -97 107 -50 27 -60 38 -74 78 -15 41 -48
101 -80 147 -9 12 -6 25 15 58 15 24 37 73 50 109 21 64 23 67 73 87 55 22
103 60 103 81 0 24 45 65 100 92 41 21 61 38 80 72 37 63 58 72 158 65 73 -5
89 -3 128 15 45 22 74 61 74 100 0 28 -24 74 -73 138 l-40 53 -20 -22 c-11
-12 -50 -35 -86 -51 -125 -55 -154 -73 -190 -116 -20 -24 -54 -54 -76 -67 -22
-12 -53 -40 -70 -62 -16 -21 -56 -63 -88 -93 -32 -30 -74 -76 -93 -102 -26
-37 -40 -48 -61 -48 -58 0 -104 46 -129 130 -4 14 -7 294 -5 623 l2 599 32 61
c29 56 32 70 31 147 -1 92 -16 136 -56 164 -44 31 -116 11 -153 -41 -20 -28
-55 -160 -55 -205 0 -20 5 -49 12 -65 8 -20 14 -182 19 -558 3 -291 10 -548
14 -570 5 -33 3 -45 -13 -65 l-21 -25 -50 28 c-28 15 -81 34 -117 42 -77 16
-88 24 -123 97 -19 39 -39 62 -75 85 -28 18 -54 40 -60 50 -31 55 -35 162 -35
906 -1 843 3 796 -76 843 -31 18 -51 41 -74 84 -31 58 -59 84 -113 107 -26 12
-38 25 -81 93 -13 20 -43 46 -72 60 -36 19 -61 43 -90 85 -30 45 -53 66 -88
83 -30 14 -54 34 -65 54 -27 50 -63 87 -114 116 -30 17 -60 46 -80 76 -22 33
-52 61 -89 82 -41 24 -62 45 -82 82 -19 35 -39 56 -75 75 -26 14 -56 34 -65
44 -16 19 -50 148 -62 238 -11 84 -33 131 -79 169 -24 19 -61 61 -81 92 -21
31 -51 64 -68 73 -52 28 -98 73 -118 116 -16 33 -32 48 -76 71 -48 25 -62 38
-88 87 -27 50 -39 63 -86 85 -47 23 -57 34 -80 82 -22 48 -33 59 -85 85 -33
17 -64 41 -71 55 -6 14 -20 43 -31 65 -13 29 -32 48 -69 68 -47 25 -54 34 -84
105 -49 116 -43 159 28 189 48 19 96 16 163 -12 73 -31 90 -31 160 -3 50 20
73 22 240 23 163 0 189 -2 213 -18 41 -27 50 -60 38 -142 -8 -59 -7 -84 10
-163 11 -51 19 -105 17 -120 -3 -25 -7 -27 -56 -30 -66 -4 -94 12 -123 71 -25
47 -46 65 -104 87 -34 13 -44 24 -67 72 -33 69 -64 91 -125 91 -36 0 -50 -5
-65 -22 -25 -32 -23 -60 11 -112 40 -62 282 -302 360 -357 36 -25 92 -70 124
-99 36 -33 73 -56 100 -64 114 -31 122 -34 145 -69 29 -43 56 -58 77 -40 24
20 18 64 -16 106 -17 22 -40 56 -50 77 -21 40 -61 69 -119 88 -51 17 -77 44
-83 91 -8 58 -2 66 56 73 66 9 220 48 270 69 59 26 103 23 135 -6 66 -62 70
-63 277 -64 218 0 235 -4 304 -77 24 -25 64 -58 88 -74 23 -15 55 -45 70 -68
41 -62 65 -85 105 -106 20 -10 56 -44 80 -76 79 -104 19 -98 922 -101 554 -2
795 1 834 9 127 26 139 133 20 185 -41 18 -86 19 -778 22 -404 1 -745 4 -758
7 -13 3 -42 23 -65 44 -23 21 -65 50 -94 65 -29 14 -60 37 -70 52 -46 65 -70
87 -123 114 -71 36 -89 70 -71 131 8 27 23 46 44 59 31 19 57 20 913 20 557 0
901 4 935 10 73 14 119 59 126 123 8 65 -2 94 -40 114 -30 17 -106 18 -1167
23 -1121 5 -1136 5 -1192 26 -31 11 -68 28 -81 37 -65 42 -73 314 -12 385 l23
27 1184 5 c1271 6 1235 4 1284 57 49 53 15 120 -72 142 -33 9 -325 12 -1042
12 -584 0 -1026 4 -1067 10 -125 17 -147 54 -66 112 30 22 61 56 80 90 31 54
33 56 142 101 l110 47 887 -1 c528 -1 899 3 917 9 17 5 38 12 48 16 46 19 66
146 28 184 -43 43 -76 45 -676 42 -614 -3 -672 0 -720 45 -36 34 -35 86 4 113
16 12 32 21 36 21 16 0 75 54 99 90 14 22 43 48 64 59 42 21 96 78 115 118 6
14 33 36 59 49 30 15 59 40 76 66 36 55 70 88 120 117 24 14 54 45 71 73 17
27 45 56 62 66 52 28 86 60 114 107 14 25 40 52 58 61 57 29 97 64 118 105 13
26 32 45 52 54 33 13 150 38 273 56 107 16 143 61 90 113 -31 32 -114 48 -251
49 -131 1 -167 -11 -216 -73 -19 -23 -58 -58 -88 -78 -33 -22 -67 -56 -87 -88
-24 -37 -49 -61 -84 -80 -35 -19 -61 -44 -86 -82 -20 -30 -50 -62 -66 -71 -53
-29 -80 -54 -109 -100 -19 -30 -50 -59 -86 -81 -42 -26 -65 -49 -87 -87 -19
-33 -42 -58 -62 -68 -49 -23 -93 -63 -114 -105 -13 -25 -38 -48 -76 -71 -43
-26 -66 -48 -89 -88 -24 -40 -44 -60 -78 -77 -47 -24 -74 -56 -96 -111 -21
-53 -52 -73 -127 -84 -130 -19 -172 -30 -216 -58 -23 -15 -65 -41 -93 -56 -27
-16 -82 -58 -121 -94 -163 -151 -281 -253 -320 -276 -51 -30 -140 -45 -276
-45 -187 0 -248 24 -248 99 0 50 32 79 130 116 56 22 79 37 112 76 32 39 62
60 132 93 68 32 102 56 136 93 27 30 70 63 106 81 44 22 71 45 96 80 25 35 51
56 91 75 30 14 64 38 74 52 47 67 66 84 113 100 50 16 80 44 112 104 9 17 30
36 45 42 70 26 98 46 131 91 24 34 52 58 91 78 31 15 79 52 106 82 28 29 89
79 136 110 47 31 100 74 117 95 17 22 57 54 90 71 73 39 91 59 111 124 13 46
16 177 21 973 6 1053 -2 970 95 1018 59 29 82 63 105 154 6 24 19 47 30 53 11
6 27 25 36 42 14 27 15 42 6 97 -26 156 -26 193 3 298 16 54 35 111 43 128 8
16 60 76 116 132 74 76 114 109 152 124 30 13 58 33 70 51 10 16 37 40 60 54
38 22 51 24 180 25 76 0 159 6 183 12 83 22 106 98 40 132 -74 39 -472 40
-546 2 -17 -9 -44 -36 -60 -59 -17 -25 -48 -54 -75 -68 -60 -33 -84 -55 -111
-103 -15 -27 -39 -47 -80 -69 -71 -38 -89 -69 -94 -163 -7 -113 -14 -130 -76
-170 -16 -10 -39 -40 -52 -66 -27 -53 -69 -89 -133 -114 -34 -14 -48 -27 -67
-66 -28 -55 -49 -69 -99 -69 -56 0 -65 8 -77 72 -7 32 -19 69 -29 80 -36 45
-133 8 -186 -71 -14 -22 -44 -52 -67 -67 -23 -15 -65 -51 -93 -79 -28 -29 -63
-60 -78 -70 -15 -10 -39 -39 -54 -64 l-27 -46 -5 -1020 c-4 -709 -9 -1029 -16
-1051 -24 -65 -45 -92 -98 -127 -30 -20 -93 -71 -139 -114 -46 -43 -110 -98
-142 -123 -31 -25 -66 -56 -76 -69 -10 -13 -47 -46 -81 -74 -35 -27 -78 -67
-96 -88 -18 -21 -55 -52 -81 -69 -27 -17 -72 -57 -101 -91 -30 -34 -73 -70
-101 -84 -30 -16 -58 -40 -73 -63 -32 -50 -52 -67 -117 -96 -31 -13 -76 -42
-101 -63 -25 -21 -85 -60 -132 -87 -47 -27 -98 -63 -113 -79 -62 -66 -91 -93
-119 -107 -57 -28 -84 -51 -100 -87 -17 -34 -85 -93 -109 -93 -17 0 -48 -38
-79 -95 -27 -51 -78 -95 -110 -95 -57 0 -106 59 -106 128 0 48 23 79 90 122
28 18 58 47 67 64 25 49 51 73 108 96 45 18 59 31 86 75 24 40 42 58 73 70 78
32 89 40 115 89 23 41 37 53 91 80 52 25 70 40 90 76 19 34 38 51 78 71 62 30
86 52 116 105 12 22 40 49 66 64 38 22 51 38 87 109 46 92 92 145 202 229 41
31 95 78 119 105 25 26 67 59 94 74 29 16 63 46 83 75 20 27 59 64 88 82 69
45 81 60 114 141 l28 70 5 931 5 931 30 42 c17 23 42 63 56 89 19 34 46 60 98
95 48 32 76 59 85 81 16 39 62 79 121 105 29 13 52 33 69 59 25 40 67 76 117
101 14 7 43 35 63 62 21 28 58 62 89 79 28 16 58 40 66 52 8 13 20 65 27 116
17 131 40 152 179 168 90 10 120 26 155 82 20 33 45 57 78 75 64 35 79 53 92
112 19 85 14 169 -13 228 -29 65 -82 110 -194 166 -89 44 -116 72 -160 166
l-28 60 0 335 c0 184 -4 341 -8 348 -14 21 -89 52 -152 62 -95 15 -372 12
-411 -5 -70 -29 -65 45 -67 -1062 -2 -1128 4 -1046 -81 -1084 -23 -10 -62 -34
-87 -54 -52 -41 -102 -47 -119 -15 -8 15 -11 333 -9 1087 l1 1067 -30 27 c-57
51 -136 50 -174 -1 -18 -25 -19 -85 -21 -2264 l-2 -2238 -33 -29 c-24 -22 -42
-29 -72 -29 l-40 0 -1 1668 c-1 917 -3 1939 -5 2272 l-3 605 -31 28 c-41 37
-83 36 -121 -3 l-30 -30 1 -1387 c0 -764 1 -1768 1 -2232 -1 -773 1 -846 16
-872 18 -31 76 -59 123 -59 33 0 45 -24 35 -69 -7 -35 -40 -67 -102 -101 -31
-16 -56 -40 -72 -68 -19 -32 -42 -52 -86 -75 -45 -24 -69 -45 -96 -86 -23 -34
-51 -62 -75 -74 -58 -29 -82 -55 -104 -114 -36 -97 -57 -128 -127 -188 -37
-32 -99 -89 -138 -125 -38 -37 -96 -84 -127 -105 -32 -21 -58 -41 -58 -46 0
-15 -93 -100 -131 -119 -24 -13 -51 -40 -73 -74 -29 -46 -46 -60 -103 -87 -37
-18 -85 -45 -106 -60 -51 -37 -82 -42 -152 -26 -78 18 -114 8 -159 -45 -43
-50 -52 -91 -37 -165 22 -113 6 -178 -56 -219 -30 -20 -39 -21 -370 -17 -186
2 -362 8 -391 14 -39 8 -62 20 -87 45 -47 46 -47 84 0 149 33 48 62 142 52
169 -3 7 -29 16 -57 20 -29 4 -83 23 -120 43 -48 25 -74 33 -90 28 -47 -15
-150 -130 -150 -167 0 -6 12 -41 26 -76 30 -75 27 -115 -11 -161 -39 -46 -87
-52 -426 -54 -279 -2 -307 0 -332 16 -60 39 -82 120 -57 207 6 19 14 86 19
147 8 126 16 142 80 162 44 13 88 51 113 99 12 21 33 40 62 53 47 20 80 51
119 109 12 19 41 43 62 53 47 22 89 59 116 104 11 17 44 45 74 62 29 17 71 51
92 76 21 26 65 66 98 90 33 24 80 64 105 90 24 26 79 72 123 102 43 31 90 71
105 91 15 19 48 59 75 89 26 29 47 59 47 67 0 26 -40 49 -94 54 -67 5 -97 -10
-133 -67 -20 -32 -45 -53 -88 -75 -45 -23 -68 -43 -92 -81 -26 -40 -45 -55
-91 -76 -58 -26 -81 -48 -113 -107 -11 -19 -36 -38 -73 -55 -38 -18 -62 -36
-74 -58 -32 -58 -53 -79 -108 -105 -45 -21 -60 -35 -84 -78 -24 -42 -40 -57
-81 -76 -52 -25 -81 -53 -111 -108 -10 -19 -35 -40 -61 -52 -53 -25 -69 -41
-100 -101 -18 -34 -34 -50 -76 -70 -55 -27 -187 -130 -233 -183 -38 -43 -44
-85 -24 -167 24 -99 8 -152 -58 -194 -16 -10 -85 -14 -286 -17 -253 -3 -267
-2 -300 18 -42 24 -80 78 -80 112 0 14 10 56 22 94 20 61 21 73 10 116 -13 46
-36 85 -87 148 -13 17 -36 61 -49 98 -29 80 -43 97 -114 142 -35 23 -58 46
-68 69 -14 35 -54 70 -112 100 -19 9 -41 30 -50 47 -30 54 -64 88 -112 113
-34 17 -55 38 -76 72 -32 55 -43 66 -101 94 -24 12 -43 24 -43 28 0 4 -14 29
-31 55 -23 34 -47 55 -90 77 -33 16 -59 30 -59 32 0 1 -16 47 -35 101 l-35
100 1 605 c0 333 4 631 9 661 4 30 13 91 20 135 15 96 7 134 -45 215 -20 30
-40 71 -45 91 -6 21 -13 174 -16 340 -5 290 -14 432 -34 509 -5 19 -10 116
-12 215 -2 165 -1 183 17 210 36 55 58 59 74 14 6 -19 11 -108 11 -216 0 -213
8 -245 65 -269 70 -29 141 13 166 98 5 18 9 486 9 1096 1 1166 5 1089 -57
1129 -24 16 -53 18 -223 18 -178 0 -198 -2 -234 -21 -65 -34 -81 -63 -76 -142
5 -86 6 -203 1 -950 l-3 -613 34 -52 c74 -110 68 -44 68 -783 0 -449 -4 -688
-11 -732 -15 -83 -2 -129 57 -201 24 -29 49 -72 56 -95 10 -31 13 -185 13
-631 0 -324 -2 -642 -5 -705 -5 -110 -4 -117 19 -150 14 -19 38 -46 54 -60 16
-14 39 -36 51 -50 27 -32 225 -226 362 -355 215 -201 363 -354 383 -394 28
-53 26 -91 -5 -173 l-26 -68 22 -66 c25 -73 23 -128 -5 -170 -32 -49 -63 -54
-337 -54 -325 0 -394 15 -434 91 -19 38 -13 70 27 123 28 38 36 76 23 110 -10
25 -175 136 -202 136 -6 0 -33 -16 -62 -36 -29 -20 -77 -47 -106 -60 -88 -39
-96 -88 -22 -145 24 -19 46 -38 50 -44 16 -21 8 -83 -14 -110 -20 -26 -25 -27
-83 -23 -71 6 -118 27 -142 65 -20 30 -23 144 -9 283 7 75 7 75 -36 159 -35
70 -54 93 -103 131 -33 26 -75 66 -94 91 -18 24 -55 58 -80 75 -45 30 -88 74
-121 123 -8 12 -34 33 -57 46 -23 14 -61 47 -85 74 -23 27 -68 69 -99 94 -37
31 -66 65 -89 108 -18 35 -47 80 -63 101 l-29 36 1 833 1 833 87 88 c104 104
127 111 183 53 91 -94 188 -57 183 69 -1 28 -4 321 -6 651 -3 670 -4 660 61
691 50 24 99 10 130 -36 l24 -35 -7 -880 c-3 -484 -8 -900 -11 -925 -2 -25
-12 -77 -21 -117 -14 -62 -15 -82 -4 -143 20 -110 71 -155 146 -130 40 13 58
38 79 110 21 71 20 110 -5 211 -21 82 -22 90 -10 419 6 184 11 581 11 882 0
529 1 549 21 603 11 30 28 59 38 65 10 5 30 24 44 43 l26 34 5 754 c3 508 8
766 16 792 21 70 -19 113 -135 148 -55 17 -106 22 -240 26 -227 6 -267 0 -314
-42 -34 -31 -36 -37 -36 -92 7 -825 7 -803 -13 -841 -22 -42 -45 -51 -72 -27
-42 38 -45 114 -29 879 1 45 -24 84 -67 106 -34 17 -357 25 -410 9z m9136
-1135 c43 -10 79 -25 91 -37 48 -52 11 -192 -64 -237 -17 -11 -55 -24 -83 -30
-78 -16 -118 3 -149 72 -48 109 -39 187 27 228 40 24 83 25 178 4z m-8762
-1353 c34 -17 43 -29 53 -64 14 -54 14 -125 0 -170 -15 -45 -58 -66 -150 -74
-79 -7 -127 6 -162 43 -22 23 -24 35 -24 112 0 101 16 140 67 166 45 23 159
16 216 -13z m8520 -3 c7 -7 12 -27 12 -45 0 -48 -37 -83 -88 -83 -48 0 -62 14
-62 61 0 29 6 43 26 58 30 23 93 28 112 9z m471 -29 c47 -16 38 -36 -23 -54
-63 -19 -80 -35 -104 -101 -24 -67 -28 -72 -75 -94 -78 -37 -72 43 -72 -1002
l0 -936 -21 -29 c-30 -40 -88 -40 -118 0 -21 28 -21 31 -24 935 -3 925 -1 995
35 1070 9 20 31 41 54 53 54 27 106 75 125 115 9 18 28 37 42 43 37 13 142 13
181 0z m-635 -128 c3 -5 7 -543 7 -1196 2 -1096 1 -1188 -15 -1203 -9 -9 -44
-26 -79 -37 -59 -19 -63 -22 -89 -76 -26 -53 -32 -58 -88 -78 -59 -22 -79 -40
-112 -100 -12 -22 -36 -40 -75 -58 -38 -18 -89 -56 -148 -112 -53 -51 -111
-96 -141 -110 -36 -16 -56 -33 -67 -56 -20 -41 -72 -84 -129 -104 -35 -13 -45
-23 -54 -51 -6 -19 -23 -47 -37 -62 -20 -23 -33 -28 -74 -28 -64 0 -93 25 -93
80 0 46 29 74 94 91 50 13 72 32 81 67 10 42 43 70 100 87 53 15 62 26 93 105
10 27 27 37 105 65 41 15 52 24 67 59 21 49 41 68 95 90 49 21 80 49 96 88 8
20 29 38 69 58 31 16 73 48 94 72 21 24 55 61 76 84 82 88 74 -23 80 1194 5
1113 5 1118 42 1133 22 9 97 7 102 -2z m-1587 -3497 c22 -22 25 -32 20 -67 -4
-32 -15 -50 -45 -77 -22 -19 -48 -48 -58 -64 -32 -50 -91 -86 -144 -86 -68 0
-83 15 -84 84 0 52 3 61 27 82 15 13 40 26 55 30 69 14 97 30 114 64 33 65 72
77 115 34z m-7607 -1109 c36 -19 50 -43 50 -87 0 -45 -8 -54 -71 -86 -63 -32
-77 -56 -92 -157 -13 -98 -9 -107 50 -103 l48 3 35 72 c26 53 47 81 80 106 25
19 63 55 84 81 21 25 63 64 94 86 31 22 72 52 90 67 46 37 126 44 165 13 20
-16 27 -30 27 -56 0 -39 -21 -62 -90 -97 -36 -18 -50 -33 -69 -75 -24 -51 -27
-54 -84 -69 -63 -18 -89 -44 -101 -99 -9 -39 -31 -60 -71 -69 -73 -16 -84 -25
-101 -81 -9 -31 -25 -60 -37 -69 -27 -19 -101 -20 -116 -1 -7 8 -15 46 -20 85
-4 39 -10 73 -14 77 -4 4 -29 9 -57 12 -27 2 -54 10 -60 17 -15 19 -30 140
-30 260 0 123 9 147 64 171 43 19 189 18 226 -1z m8191 -44 c21 -23 65 -60 98
-81 99 -64 118 -119 51 -152 -52 -27 -115 -24 -145 7 -14 13 -25 35 -25 48 0
37 -29 64 -94 86 -32 11 -67 28 -77 37 -27 24 -23 59 9 84 23 18 37 21 86 18
55 -4 62 -8 97 -47z m-8831 -383 c41 -15 91 -21 193 -25 165 -7 171 -11 165
-90 -6 -65 -26 -89 -81 -98 -62 -10 -123 -40 -142 -69 -9 -14 -40 -39 -68 -56
-29 -18 -79 -59 -113 -93 -33 -34 -85 -79 -115 -99 -30 -21 -72 -55 -94 -76
-22 -21 -69 -62 -105 -92 -36 -30 -92 -80 -125 -111 -33 -30 -79 -68 -103 -84
-31 -20 -65 -61 -118 -142 -62 -94 -74 -119 -74 -153 0 -23 4 -50 10 -60 11
-20 -17 -311 -31 -320 -4 -3 -9 -21 -11 -40 -2 -27 -8 -36 -25 -38 -21 -3 -23
1 -23 37 0 23 -4 41 -8 41 -14 0 -32 88 -32 158 0 37 -10 128 -21 202 -36 235
-37 219 14 310 25 44 49 91 53 103 9 31 33 56 75 77 33 18 59 43 118 120 12
17 40 39 61 50 39 20 74 56 102 108 9 17 36 43 60 58 49 31 66 52 89 108 15
36 83 116 100 116 4 0 28 30 53 68 25 37 57 80 72 95 28 30 28 30 124 -5z
m9810 -4274 c38 -33 70 -93 70 -134 0 -62 -73 -170 -115 -170 -67 0 -120 172
-81 264 15 36 50 66 77 66 10 0 32 -12 49 -26z m356 -311 c29 -18 114 -128
114 -146 0 -18 -63 -75 -97 -88 -13 -5 -44 -9 -68 -9 -35 0 -52 6 -77 29 -29
26 -33 35 -32 80 0 40 7 61 30 94 46 65 76 74 130 40z m-12547 -874 c79 -14
121 -49 121 -99 0 -68 -33 -90 -161 -109 -90 -14 -120 -6 -149 41 -35 58 -21
135 31 164 30 17 74 17 158 3z m13533 0 c61 -16 87 -93 53 -158 -21 -42 -60
-53 -169 -49 -115 4 -136 18 -143 95 -4 39 -1 53 17 76 13 16 32 33 44 37 30
12 154 12 198 -1z"/>
<path d="M12332 18909 c-23 -4 -69 -25 -102 -45 -50 -31 -65 -35 -97 -30 -163
26 -155 37 -147 -192 4 -97 1 -298 -5 -447 -24 -575 -50 -1617 -52 -2075 0
-141 12 -215 43 -247 51 -54 95 -14 123 112 15 63 16 204 13 1375 -3 1236 -2
1307 15 1333 20 32 42 35 56 8 13 -24 27 -263 46 -796 13 -357 19 -433 37
-510 21 -89 21 -98 15 -895 -5 -666 -9 -815 -21 -865 -20 -79 -20 -123 1 -176
12 -33 17 -78 17 -179 1 -123 3 -139 26 -184 45 -87 97 -85 126 7 19 59 36
305 38 532 1 196 15 246 86 305 84 71 96 112 60 216 -18 52 -20 74 -15 179 4
66 8 311 10 545 3 391 4 432 24 514 20 87 21 113 21 763 l0 673 -32 35 c-27
29 -44 37 -93 45 -70 11 -133 11 -193 -1z"/>
<path d="M9383 18900 c-12 -5 -29 -20 -38 -34 -15 -22 -16 -130 -14 -1198 6
-2396 6 -2295 -19 -2361 -34 -88 -30 -118 21 -171 23 -24 55 -48 71 -52 44
-11 96 21 126 78 l24 46 -18 91 c-18 86 -18 149 -12 1253 3 640 7 1418 8 1730
l3 568 -26 26 c-29 28 -89 40 -126 24z"/>
<path d="M11621 18897 c-14 -6 -33 -26 -42 -42 -16 -28 -16 -73 -8 -605 21
-1380 28 -2446 17 -2574 -7 -94 -7 -139 1 -166 11 -36 84 -130 102 -130 12 0
161 101 176 120 23 29 14 64 -32 120 -25 30 -48 66 -52 80 -3 13 -3 726 0
1583 l6 1560 -33 33 c-27 27 -42 34 -72 34 -22 0 -50 -6 -63 -13z"/>
<path d="M10256 18885 c-22 -8 -48 -23 -60 -34 -20 -20 -20 -29 -18 -333 4
-399 -13 -972 -34 -1156 -9 -78 -13 -153 -10 -167 13 -53 86 -85 156 -70 46
10 61 44 75 164 13 112 27 150 85 226 l30 41 4 209 c2 116 -1 332 -5 480 -12
370 -12 441 -4 506 7 51 5 58 -16 79 -53 50 -144 75 -203 55z"/>
<path d="M12845 18884 c-16 -8 -36 -21 -43 -28 -10 -10 -14 -183 -18 -812 -3
-439 -6 -818 -6 -841 -1 -55 20 -86 88 -129 91 -58 88 -44 92 -519 4 -489 2
-514 -44 -590 -19 -32 -34 -70 -34 -85 0 -50 91 -110 166 -110 29 0 44 7 71
37 34 35 34 37 28 102 -9 102 -21 871 -15 1006 5 102 9 129 31 176 28 58 63
99 86 99 24 0 70 -60 85 -109 8 -29 13 -98 13 -186 0 -471 -9 -1247 -17 -1463
l-9 -254 26 -101 c15 -56 39 -124 54 -152 28 -50 28 -51 35 -295 3 -135 13
-301 21 -370 21 -179 22 -174 -29 -228 -27 -29 -53 -71 -67 -107 -16 -44 -36
-73 -73 -108 -28 -26 -87 -82 -131 -123 -44 -41 -114 -107 -155 -147 -41 -40
-89 -79 -106 -86 -18 -7 -49 -37 -74 -71 -28 -38 -59 -67 -92 -85 -30 -17 -63
-46 -85 -77 -23 -31 -56 -61 -90 -80 -38 -22 -65 -47 -91 -87 -27 -40 -52 -63
-87 -82 -54 -28 -85 -69 -85 -110 0 -35 18 -39 134 -29 96 8 151 29 161 60 8
25 76 90 116 110 20 11 48 34 60 51 37 48 92 102 129 124 19 11 48 40 65 65
18 25 51 56 77 70 59 32 84 55 110 101 15 26 39 48 81 70 36 19 66 43 76 62
27 51 54 77 106 105 34 18 55 38 66 62 9 19 35 72 58 118 41 85 49 129 31 176
-5 14 -12 207 -15 428 l-6 403 32 150 c37 176 36 234 -4 286 -59 78 -57 44
-65 866 -9 836 -7 923 27 998 17 36 25 82 32 164 5 63 11 116 14 119 13 13 20
-17 26 -107 6 -81 13 -111 40 -172 l33 -74 6 -275 c4 -201 10 -282 20 -302 7
-16 37 -42 67 -58 66 -38 83 -72 83 -169 0 -110 -26 -225 -70 -308 -46 -87
-44 -103 28 -154 33 -24 59 -34 96 -37 48 -4 54 -2 84 29 18 18 33 42 34 53 2
39 -3 81 -17 122 -25 76 -54 242 -65 371 -6 70 -15 169 -20 218 -11 99 -13
219 -5 227 3 3 22 -3 43 -13 44 -23 122 -25 162 -4 59 30 60 41 65 433 2 196
5 644 6 996 l3 638 -32 29 c-41 36 -97 39 -153 7 -69 -38 -71 -47 -74 -272 -3
-193 -8 -246 -25 -246 -22 0 -41 307 -23 377 14 54 -4 92 -56 121 -46 26 -125
29 -186 7 -52 -19 -95 -19 -156 1 -66 22 -210 15 -265 -12 -46 -22 -43 38 -27
-494 11 -368 7 -455 -24 -477 -45 -34 -135 0 -167 63 -20 37 -21 55 -22 466 0
467 2 448 -61 475 -40 16 -41 16 -78 -3z m1080 -793 c48 -154 44 -1030 -6
-1158 -11 -27 -11 -27 -19 -7 -14 36 -39 231 -50 384 -16 223 4 636 36 748 16
54 28 65 39 33z m-726 -705 c10 -21 11 -34 2 -52 -10 -22 -16 -24 -84 -24 -78
0 -117 16 -117 49 0 37 58 61 140 58 39 -2 47 -6 59 -31z"/>
<path d="M14395 18888 c-11 -6 -28 -20 -37 -32 -16 -20 -17 -83 -12 -976 3
-525 1 -1157 -3 -1405 l-9 -450 -37 -67 c-20 -37 -37 -73 -37 -81 0 -7 12 -25
28 -39 77 -73 163 -90 207 -42 41 44 48 82 31 165 -20 99 -20 147 -18 1610 2
696 0 1273 -4 1283 -7 18 -54 46 -76 46 -7 0 -22 -6 -33 -12z"/>
<path d="M10764 18880 c-12 -4 -30 -20 -42 -34 -20 -26 -20 -38 -21 -604 -1
-317 -4 -604 -7 -637 -4 -39 0 -84 10 -128 29 -125 18 -174 -45 -202 -60 -28
-79 -56 -105 -156 l-24 -91 0 -663 0 -663 -30 -64 c-37 -79 -37 -99 0 -168 36
-68 37 -98 4 -177 -17 -39 -24 -71 -20 -86 12 -48 92 -107 146 -107 34 0 79
28 95 60 18 35 20 98 3 137 -7 17 -12 93 -13 188 -1 88 -7 194 -13 235 -13 88
-15 1055 -3 1225 10 143 37 198 125 257 71 49 80 74 84 238 3 151 21 1303 21
1355 0 65 -94 114 -165 85z"/>
<path d="M11172 18880 c-104 -16 -131 -54 -114 -157 17 -103 27 -1385 12
-1598 -6 -93 -15 -354 -20 -580 -7 -358 -11 -422 -29 -505 -31 -141 -29 -171
19 -252 66 -110 64 -222 -5 -313 -40 -52 -55 -79 -55 -99 0 -23 58 -85 101
-107 72 -36 124 -17 155 57 19 46 18 80 -7 160 -27 88 -29 204 -4 306 17 71
17 85 4 195 -9 78 -14 222 -14 423 0 350 -3 339 91 391 29 17 58 37 66 46 10
13 14 189 19 922 4 498 10 933 14 966 8 70 -3 107 -39 130 -30 20 -120 27
-194 15z"/>
<path d="M9754 18871 c-48 -21 -54 -44 -49 -195 24 -721 28 -942 29 -1419 l1
-549 25 -20 c14 -10 41 -29 60 -41 21 -13 45 -42 60 -72 l25 -50 5 -645 c6
-587 5 -656 -12 -765 -10 -66 -18 -147 -18 -181 0 -51 4 -64 24 -83 31 -29
104 -44 174 -35 64 8 90 27 101 74 11 52 -16 195 -50 264 l-30 59 -5 466 c-5
512 -19 989 -34 1206 -6 92 -6 168 1 223 7 63 6 109 -5 195 -14 101 -22 322
-42 1113 -5 185 -3 265 6 307 16 68 2 110 -41 133 -34 17 -195 28 -225 15z"/>
<path d="M3508 18750 c-52 -15 -136 -70 -164 -107 -40 -53 -53 -98 -54 -188 0
-135 24 -181 111 -210 38 -13 56 -27 83 -65 40 -56 69 -66 170 -58 76 6 96 18
127 75 19 35 36 49 86 73 82 39 96 62 101 166 5 101 -4 128 -66 187 -26 24
-61 59 -79 79 -17 19 -49 40 -71 46 -44 13 -202 15 -244 2z m187 -170 c89 -11
110 -32 102 -102 -6 -51 -35 -114 -63 -140 -23 -20 -116 -48 -160 -48 -44 0
-60 19 -84 99 -53 178 -9 219 205 191z"/>
<path d="M16992 18748 c-44 -15 -175 -137 -197 -184 -14 -29 -16 -56 -13 -123
5 -99 24 -143 72 -162 79 -31 98 -44 115 -78 30 -58 53 -73 123 -78 94 -8 141
9 175 60 18 25 44 49 68 60 78 34 90 43 107 77 27 53 25 209 -3 267 -22 45
-99 117 -159 149 -42 22 -235 30 -288 12z m227 -168 c45 -13 60 -36 61 -91 0
-59 -40 -160 -71 -177 -29 -16 -163 -9 -185 9 -26 22 -65 108 -71 157 -4 38
-1 52 16 74 12 15 34 29 49 31 54 8 168 7 201 -3z"/>
<path d="M4016 17239 c-15 -12 -38 -39 -51 -59 -17 -27 -38 -44 -72 -57 -64
-24 -85 -40 -116 -90 -19 -30 -44 -51 -85 -72 -31 -16 -87 -58 -124 -93 -38
-37 -97 -81 -137 -102 -39 -20 -77 -47 -86 -59 -19 -27 -19 -70 -1 -106 27
-51 38 -54 98 -26 30 14 77 28 104 31 64 9 71 15 79 74 8 60 26 77 101 97 61
15 80 33 100 88 10 29 29 42 117 79 26 11 48 32 72 70 18 29 50 63 70 74 58
35 73 105 30 147 -30 31 -64 32 -99 4z"/>
<path d="M17167 17078 c-39 -29 -46 -174 -47 -865 0 -561 2 -648 16 -682 27
-67 104 -79 155 -25 l24 26 3 681 c2 375 0 710 -3 745 -5 49 -13 70 -33 93
-31 35 -87 48 -115 27z"/>
<path d="M4578 16620 c-9 -6 -52 -15 -95 -20 -87 -11 -123 -31 -135 -76 -12
-44 -12 -690 0 -754 8 -43 7 -69 -5 -120 -30 -130 2 -190 100 -190 34 0 70 9
103 24 80 37 84 69 18 146 -40 47 -45 58 -40 88 3 20 21 51 47 79 36 40 41 49
36 82 -2 20 -16 54 -31 75 -35 53 -46 97 -46 194 0 95 12 132 63 187 19 21 37
48 39 59 5 26 -23 236 -31 236 -3 0 -14 -5 -23 -10z"/>
<path d="M11636 15328 c-47 -54 -61 -106 -43 -151 29 -67 108 -86 208 -48 89
34 113 89 62 140 -32 31 -154 101 -176 101 -9 0 -32 -19 -51 -42z"/>
<path d="M17174 15230 c-22 -9 -82 -78 -103 -117 -20 -39 -13 -87 17 -115 91
-88 232 -47 232 67 0 39 -42 128 -72 152 -21 17 -51 22 -74 13z"/>
<path d="M4335 14498 c-49 -22 -58 -23 -565 -28 -563 -6 -575 -7 -602 -65 -10
-22 -8 -30 9 -53 39 -53 64 -55 603 -59 275 -2 511 -8 530 -13 90 -25 220 -1
285 53 63 51 42 111 -53 153 -81 36 -145 40 -207 12z"/>
<path d="M9970 14217 c0 -8 9 -22 19 -31 29 -26 44 -102 32 -156 -27 -116 -6
-209 59 -264 38 -31 69 -32 135 -3 108 48 135 75 135 137 0 28 -9 39 -92 110
-20 17 -46 51 -58 76 -30 61 -64 91 -135 120 -68 27 -95 30 -95 11z"/>
<path d="M17159 13305 c-72 -31 -75 -96 -7 -131 64 -34 335 -27 407 10 57 30
49 85 -17 113 -55 24 -334 29 -383 8z"/>
<path d="M8215 11500 c-38 -14 -56 -48 -80 -154 -13 -59 -29 -114 -36 -122 -7
-8 -34 -24 -61 -36 -38 -16 -55 -31 -75 -67 -38 -66 -53 -81 -98 -101 -46 -20
-60 -34 -95 -98 -19 -35 -38 -52 -80 -74 -30 -15 -71 -48 -92 -72 -21 -24 -55
-51 -75 -60 -99 -41 -125 -106 -80 -195 27 -54 66 -84 105 -83 70 2 179 87
202 158 24 72 80 152 150 214 39 34 84 81 101 104 16 22 49 54 73 70 24 16 60
55 81 85 21 31 58 71 83 90 54 41 78 92 87 188 7 63 5 76 -14 106 -24 39 -65
58 -96 47z"/>
<path d="M14893 10650 c-67 -40 -34 -128 96 -258 48 -48 96 -98 107 -112 10
-14 47 -45 81 -69 34 -24 74 -60 88 -82 34 -48 93 -83 165 -98 30 -6 170 -13
310 -15 140 -2 294 -10 342 -17 75 -11 96 -10 162 4 64 14 138 17 443 17 338
0 372 -2 456 -21 105 -25 176 -22 301 11 95 25 131 43 151 74 13 19 13 29 4
49 -26 57 -71 61 -782 66 -450 2 -516 5 -582 21 -73 18 -78 18 -207 -2 -109
-16 -174 -19 -361 -16 l-229 3 -31 36 c-18 20 -40 48 -49 62 -10 14 -39 37
-65 52 -33 18 -58 42 -82 79 -23 37 -49 62 -85 82 -28 17 -60 45 -71 63 -54
90 -99 110 -162 71z"/>
<path d="M8848 10159 c-10 -5 -23 -19 -29 -30 -7 -15 -11 -255 -10 -807 0
-439 -4 -826 -10 -875 -11 -100 -25 -140 -68 -194 -58 -74 -60 -138 -7 -252
22 -49 23 -56 19 -278 -5 -228 -5 -228 -40 -338 -19 -60 -51 -141 -71 -180
l-36 -70 -8 -800 c-5 -528 -11 -828 -19 -881 -11 -78 -11 -84 10 -117 29 -48
82 -92 125 -107 46 -15 89 -2 152 46 53 41 68 42 118 8 77 -53 152 -40 182 31
19 47 21 1656 1 1694 -22 43 -60 63 -131 68 -53 5 -70 10 -81 27 -13 17 -15
89 -15 442 0 365 2 427 16 465 15 40 16 144 14 1078 -2 1143 2 1081 -64 1081
-17 0 -39 -5 -48 -11z"/>
<path d="M17204 9910 c-30 -12 -71 -64 -79 -100 -9 -43 21 -101 65 -122 40
-20 116 -23 174 -7 125 35 112 195 -18 228 -52 13 -112 13 -142 1z"/>
<path d="M7215 9205 c-87 -23 -119 -91 -76 -161 41 -67 176 -124 229 -95 28
15 72 108 72 153 0 104 -82 141 -225 103z"/>
<path d="M10594 9191 c-17 -11 -40 -36 -50 -58 -13 -25 -39 -51 -79 -78 -61
-40 -77 -57 -106 -110 -9 -16 -34 -39 -56 -50 -55 -28 -84 -53 -116 -102 -15
-24 -44 -51 -65 -62 -50 -26 -74 -48 -105 -98 -17 -26 -45 -51 -78 -69 -36
-20 -62 -45 -88 -83 -25 -38 -53 -65 -91 -87 -36 -21 -65 -48 -86 -80 -20 -32
-51 -60 -89 -84 -40 -24 -67 -49 -85 -80 -15 -26 -48 -60 -77 -80 -94 -63 -87
-10 -96 -725 -4 -346 -6 -943 -4 -1325 4 -773 2 -743 71 -777 29 -13 37 -14
62 -2 15 8 38 29 51 48 l23 34 -2 1256 c-1 1138 0 1259 15 1286 21 39 200 219
469 470 47 44 131 123 187 175 56 52 119 113 139 134 20 22 53 53 72 70 29 26
79 72 250 229 34 32 134 155 141 175 10 27 -7 60 -40 76 -42 22 -129 20 -167
-3z"/>
<path d="M15978 9107 c-43 -45 -43 -138 -2 -175 l26 -23 732 3 c662 3 735 5
768 20 81 36 69 121 -22 162 -56 25 -275 33 -990 38 l-485 3 -27 -28z"/>
<path d="M3503 8876 c-16 -14 -35 -44 -42 -67 -18 -59 -48 -85 -115 -99 -110
-23 -156 -52 -156 -98 0 -60 73 -112 158 -112 38 0 61 8 110 38 34 20 77 49
95 63 41 33 89 129 95 191 4 42 1 50 -26 78 -38 37 -79 40 -119 6z"/>
<path d="M7315 8521 c-78 -32 -106 -167 -65 -313 19 -68 20 -103 20 -553 -1
-264 -5 -539 -9 -612 -8 -120 -12 -137 -40 -189 -31 -58 -39 -102 -21 -120 42
-42 29 -777 -17 -974 -10 -44 -14 -101 -11 -174 l3 -110 -25 -6 c-28 -7 -50 9
-50 35 0 9 7 38 16 65 17 53 16 99 -9 240 -42 236 -61 499 -53 715 6 158 6
161 36 203 16 23 30 46 30 50 -1 18 -58 46 -102 50 -38 4 -53 1 -69 -14 -19
-17 -20 -25 -13 -74 4 -30 8 -282 9 -560 0 -278 4 -550 8 -605 7 -84 6 -105
-7 -130 -21 -40 -20 -52 9 -80 27 -28 76 -33 149 -14 41 10 47 9 121 -30 53
-29 89 -41 117 -41 47 0 100 29 114 62 12 29 -1 1658 -15 1788 -5 52 -10 295
-10 540 -1 444 -1 445 24 550 25 102 26 107 10 175 -17 75 -26 91 -65 118 -26
18 -53 21 -85 8z"/>
<path d="M12274 8496 c-33 -33 -34 -36 -34 -115 0 -50 8 -115 22 -167 20 -82
20 -94 9 -238 -6 -83 -11 -207 -12 -276 -1 -159 -11 -231 -34 -245 -84 -50
-106 -70 -131 -120 -21 -44 -36 -60 -79 -84 -54 -31 -86 -66 -100 -111 -14
-46 -35 -65 -97 -90 -41 -16 -67 -34 -75 -50 -11 -20 -14 -185 -14 -795 -1
-423 -2 -789 -2 -812 -3 -104 145 -154 194 -65 13 23 15 135 18 762 3 868 -3
815 111 935 37 39 77 90 89 112 13 26 36 50 64 66 46 27 89 81 108 135 7 20
26 43 50 58 75 47 73 38 70 393 -2 262 0 332 14 405 11 58 16 124 13 188 -3
95 -4 101 -31 124 -21 18 -40 24 -74 24 -38 0 -50 -5 -79 -34z"/>
<path d="M6495 8511 c-34 -15 -54 -44 -70 -106 -21 -82 -20 -122 4 -135 11 -5
70 -11 130 -13 103 -2 112 0 133 21 19 19 22 32 23 102 0 74 -2 82 -28 107
-24 24 -36 28 -100 30 -39 2 -81 -1 -92 -6z"/>
<path d="M11653 8496 l-28 -24 -5 -170 c-6 -195 -6 -197 -107 -254 -39 -22
-60 -42 -79 -79 -24 -43 -34 -52 -84 -70 -62 -23 -102 -54 -125 -99 -11 -21
-37 -40 -90 -65 -44 -21 -85 -49 -103 -70 -31 -38 -73 -55 -138 -55 -64 0
-102 -32 -136 -115 -31 -75 -54 -105 -108 -140 -21 -13 -45 -42 -59 -71 -14
-27 -37 -70 -52 -95 -15 -25 -30 -60 -34 -77 -7 -35 5 -45 70 -56 62 -11 95
-27 100 -50 7 -27 11 -964 7 -1358 -4 -299 -3 -308 17 -342 39 -62 125 -82
164 -38 37 43 37 45 38 895 1 739 -1 838 -15 865 -16 32 -43 56 -95 84 -45 25
-40 51 23 111 29 29 63 71 75 95 18 35 33 48 89 75 50 24 76 44 104 82 24 31
56 59 87 75 50 25 121 84 121 100 0 4 19 19 43 33 23 14 69 48 102 76 50 43
65 51 100 51 72 -1 101 -42 90 -129 -8 -69 -33 -111 -92 -156 -25 -19 -59 -53
-75 -74 -26 -36 -110 -101 -129 -101 -5 0 -27 -26 -51 -57 -48 -66 -61 -79
-103 -98 -40 -18 -59 -40 -87 -100 l-23 -50 -5 -840 c-4 -625 -2 -851 7 -883
28 -103 122 -113 159 -16 16 42 17 98 11 812 -3 422 -2 802 2 845 10 96 33
127 93 127 63 0 101 -28 112 -82 3 -15 6 -390 6 -833 2 -872 1 -871 53 -889
39 -14 94 15 111 57 10 25 12 204 10 881 -3 816 -4 851 -24 927 -23 89 -26
162 -7 199 7 14 39 38 72 55 69 35 80 53 121 187 19 64 24 98 19 125 -10 59
-9 114 4 163 9 31 11 80 6 156 l-6 111 35 46 c44 58 59 116 54 208 -3 63 -7
74 -31 95 -25 21 -38 24 -107 24 -69 0 -82 -3 -107 -24z"/>
<path d="M6144 8260 c-61 -25 -87 -122 -58 -216 22 -70 22 -80 11 -1163 -6
-610 -10 -747 -23 -815 -12 -60 -18 -165 -21 -412 -4 -294 -3 -335 12 -363 35
-69 118 -88 219 -51 94 36 91 19 91 445 0 394 -2 415 -52 565 l-26 75 -13 790
c-8 435 -12 804 -9 821 3 17 19 46 36 65 46 51 61 86 67 154 6 76 -2 84 -111
101 -94 16 -95 16 -123 4z"/>
<path d="M10356 8225 c-99 -41 -125 -80 -92 -143 8 -15 24 -36 36 -47 38 -33
48 -74 55 -220 9 -182 2 -213 -65 -261 -28 -20 -50 -37 -50 -37 0 -1 -13 -34
-29 -74 -38 -93 -45 -142 -31 -228 8 -48 11 -345 12 -960 0 -988 -4 -927 66
-961 42 -20 102 -13 179 21 69 31 79 55 57 139 -14 54 -15 147 -13 786 1 399
1 743 0 766 0 26 -9 50 -22 65 -12 13 -37 55 -55 94 -28 57 -34 81 -34 135 0
76 13 101 79 151 65 50 80 117 81 352 0 98 5 209 11 247 13 86 1 139 -42 174
-38 32 -67 32 -143 1z"/>
<path d="M10783 8220 c-82 -34 -55 -195 36 -220 40 -10 124 6 179 34 37 20 99
85 111 118 18 48 8 55 -92 62 -51 3 -119 8 -152 11 -33 3 -70 1 -82 -5z"/>
<path d="M17153 8180 c-18 -11 -36 -32 -40 -47 -10 -34 -9 -135 1 -268 7 -98
6 -101 -21 -149 -39 -68 -72 -91 -126 -86 -92 9 -213 5 -244 -8 -56 -24 -81
-108 -44 -153 17 -22 27 -23 198 -30 185 -7 237 -16 288 -47 29 -18 30 -18 76
10 32 21 75 34 147 47 55 9 108 23 116 30 9 8 16 28 16 46 0 35 -15 51 -115
124 -54 40 -94 102 -95 151 -1 19 2 91 6 161 8 148 -1 190 -50 220 -40 24 -73
24 -113 -1z"/>
<path d="M14728 8048 l-23 -33 -3 -1015 c-2 -993 -2 -1016 17 -1047 11 -18 33
-40 48 -49 61 -38 71 -54 78 -118 10 -91 -5 -134 -65 -185 -61 -51 -73 -88
-69 -204 6 -126 43 -166 160 -175 80 -6 140 22 169 78 20 40 21 53 18 288 -4
286 -8 306 -88 352 -79 46 -74 -20 -80 1086 -4 838 -7 984 -20 1000 -49 64
-105 73 -142 22z"/>
<path d="M6646 7991 c-17 -19 -19 -48 -24 -413 -3 -216 -6 -812 -6 -1324 -1
-903 0 -932 18 -953 40 -44 134 -12 162 55 12 29 13 46 5 84 -7 33 -7 256 0
706 6 363 15 895 19 1184 5 289 12 546 15 571 6 40 3 50 -18 74 -21 25 -33 29
-88 33 -55 3 -67 1 -83 -17z"/>
<path d="M9904 7719 l-29 -30 0 -427 c0 -474 0 -472 -66 -525 -60 -47 -69 -57
-69 -77 0 -12 15 -29 38 -44 89 -56 113 -120 92 -244 -12 -75 -28 -97 -103
-141 -20 -13 -43 -33 -49 -44 -8 -16 -11 -139 -11 -438 1 -375 2 -419 18 -442
21 -33 45 -41 115 -40 76 1 135 19 170 51 l30 27 6 480 c3 264 6 721 6 1015 1
867 3 838 -53 885 -40 33 -59 32 -95 -6z"/>
<path d="M15251 7693 c-12 -14 -24 -37 -27 -50 -4 -13 -4 -539 -1 -1169 5
-1041 7 -1147 22 -1170 23 -35 57 -49 84 -35 54 29 52 -14 49 937 -1 484 -1
1007 1 1164 2 271 1 287 -18 318 -27 43 -79 45 -110 5z"/>
<path d="M5335 7684 c-11 -3 -30 -7 -42 -9 -55 -12 -53 7 -54 -563 0 -290 -4
-804 -8 -1142 -6 -442 -5 -622 3 -640 23 -51 119 -74 209 -49 74 20 69 -71 67
1188 0 772 -4 1140 -11 1161 -6 17 -19 35 -28 40 -22 11 -109 20 -136 14z"/>
<path d="M3325 6917 c-32 -32 -35 -40 -35 -92 0 -51 3 -60 34 -91 29 -29 41
-34 82 -34 53 0 140 25 173 49 27 21 38 81 21 120 -16 40 -87 72 -172 79 -66
5 -68 4 -103 -31z"/>
<path d="M4559 6021 l-24 -19 -1 -324 c0 -236 3 -332 12 -355 23 -59 97 -55
130 8 14 28 16 70 15 325 -1 178 -6 306 -13 324 -10 29 -51 60 -81 60 -8 0
-25 -9 -38 -19z"/>
<path d="M7480 3298 c-19 -13 -41 -36 -48 -51 -20 -41 -23 -1625 -4 -1679 17
-47 46 -68 93 -68 55 0 85 40 94 126 4 37 5 227 3 423 -5 376 2 533 28 585 19
36 44 66 55 66 20 0 59 -81 79 -160 30 -122 49 -170 85 -215 46 -57 50 -68 86
-201 35 -134 47 -160 93 -212 36 -41 56 -87 93 -212 33 -114 55 -147 117 -176
123 -56 178 -39 235 71 20 39 58 101 84 139 30 44 55 95 67 140 50 175 62 207
95 246 40 48 65 111 94 242 13 54 32 112 45 130 20 30 26 33 75 33 46 0 57 -4
72 -25 31 -42 39 -142 39 -496 0 -188 3 -355 6 -373 13 -64 93 -111 167 -97
27 5 39 15 53 44 18 35 19 77 17 836 -1 772 -2 800 -20 825 -29 38 -96 72
-155 78 -75 7 -112 -20 -160 -116 -20 -41 -50 -93 -65 -115 -38 -54 -60 -106
-78 -189 -24 -105 -51 -169 -99 -230 -35 -46 -48 -75 -70 -159 -40 -149 -63
-209 -96 -243 -35 -37 -63 -107 -85 -211 -38 -186 -88 -209 -179 -82 -25 35
-61 83 -81 108 -20 25 -42 68 -49 95 -8 28 -26 93 -41 145 -14 52 -37 111 -50
130 -14 19 -37 52 -51 72 -16 23 -38 82 -56 155 -33 129 -48 163 -113 258 -34
50 -48 84 -65 157 -32 137 -44 158 -113 191 -33 16 -82 31 -110 34 -43 4 -58
1 -87 -19z"/>
<path d="M9908 3305 c-15 -9 -33 -33 -43 -59 -15 -39 -16 -102 -13 -672 5
-715 3 -697 81 -786 26 -29 62 -73 80 -98 21 -29 52 -54 86 -71 30 -15 73 -43
96 -62 23 -20 59 -42 79 -51 93 -39 479 -45 586 -9 25 8 83 42 130 75 47 33
110 74 140 91 47 27 60 42 88 98 21 41 43 110 58 185 25 117 26 130 31 681 5
516 4 565 -11 588 -36 54 -118 82 -157 52 -40 -31 -41 -41 -40 -570 1 -412 -1
-535 -14 -632 -25 -193 -42 -231 -113 -260 -21 -9 -62 -42 -92 -75 l-55 -61
-95 -10 c-125 -15 -300 -4 -356 20 -54 24 -173 137 -229 218 -87 125 -79 56
-85 728 -4 538 -7 603 -22 631 -9 17 -23 36 -31 42 -23 20 -70 23 -99 7z"/>
<path d="M11970 3292 c-20 -9 -43 -32 -53 -52 -17 -33 -17 -84 -15 -835 3
-721 5 -804 20 -837 9 -20 25 -41 36 -47 28 -15 83 -13 104 3 39 29 43 60 44
395 2 355 1 345 66 394 23 18 49 19 457 19 l431 1 27 -24 c50 -47 53 -66 54
-376 0 -158 4 -310 8 -337 11 -65 49 -101 99 -93 42 7 61 23 81 67 13 31 16
134 18 830 1 522 -1 806 -8 827 -23 73 -113 107 -157 61 -38 -42 -42 -71 -42
-331 0 -261 -5 -305 -43 -362 -39 -59 -27 -58 -456 -57 -218 1 -404 1 -413 2
-27 0 -72 44 -97 95 -22 45 -23 52 -22 310 2 244 0 267 -18 303 -17 32 -54 62
-79 62 -4 0 -23 -8 -42 -18z"/>
</g>
</svg>
